<svg width="943.992529296875px" height="336.8375px" xmlns="http://www.w3.org/2000/svg" viewBox="-221.9962646484375 -93.41874999999999 943.992529296875 336.8375" style="background: rgba(0, 0, 0, 0);" preserveAspectRatio="xMidYMid"><defs><linearGradient id="editing-gradient-gradient" x1="0" x2="1" y1="0.5" y2="0.5" gradientUnits="objectBoundingBox"><stop offset="0" stop-color="#ff0000"></stop><stop offset="1" stop-color="#ff0000"></stop></linearGradient></defs><g><g transform="translate(-87.30001223087311, 145.0999984741211)"><path d="M44.40 0L1.60 0L26-131.40L26-131.40Q45.80-133.60 74.70-133.60L74.70-133.60L74.70-133.60Q103.60-133.60 117-125.20L117-125.20L117-125.20Q130.40-116.80 130.40-99.90L130.40-99.90L130.40-99.90Q130.40-83 121.70-72.40L121.70-72.40L121.70-72.40Q113-61.80 98-58.40L98-58.40L98-58.40Q101.40-41.80 109.20-28.40L109.20-28.40L109.20-28.40Q116.40-15.80 124.80-11.80L124.80-11.80L124.80-11.80Q121.80-3.40 115.70 0.30L115.70 0.30L115.70 0.30Q109.60 4 100.90 4L100.90 4L100.90 4Q92.20 4 85.40-1.10L85.40-1.10L85.40-1.10Q78.60-6.20 73.20-15.60L73.20-15.60L73.20-15.60Q61.80-36 60.60-68.20L60.60-68.20L62-68.20L62-68.20Q76.80-68.60 84.20-76.30L84.20-76.30L84.20-76.30Q91.60-84 91.60-100.20L91.60-100.20L91.60-100.20Q91.60-120.40 74.60-121.20L74.60-121.20L70.20-121.20L70.20-121.20Q68.40-121.20 67.40-121L67.40-121L44.40 0ZM214.20-15L214.20-15L214.20-15Q214.20-29 219.80-57L219.80-57L190.20-57L179.20 0L137.40 0L162.80-132L205-132L193.40-73L223.00-73L234.00-132L276.20-132L276.20-132Q273.40-117.20 269.80-100.60L269.80-100.60L263-68L263-68Q255.40-30 255.40-13.40L255.40-13.40L255.40-13.40Q255.40-6.60 257.60-2.80L257.60-2.80L257.60-2.80Q247.60 4 235.90 4L235.90 4L235.90 4Q224.20 4 219.20-1.60L219.20-1.60L219.20-1.60Q214.20-7.20 214.20-15ZM300 0L311.60-58.80L311.60-58.80Q305.80-113 285.40-124.60L285.40-124.60L285.40-124.60Q289.60-129.80 296.40-132.70L296.40-132.70L296.40-132.70Q303.20-135.60 311.40-135.60L311.40-135.60L311.40-135.60Q319.60-135.60 325.80-132.70L325.80-132.70L325.80-132.70Q332-129.80 336-123.60L336-123.60L336-123.60Q343.60-111.80 343.60-83.60L343.60-83.60L343.60-69.20L343.60-69.20Q355.60-104.40 367.60-119.60L367.60-119.60L367.60-119.60Q379.80-135.20 395-135.20L395-135.20L395-135.20Q401-135.20 405-132.10L405-132.10L405-132.10Q409-129 411-124.40L411-124.40L411-124.40Q395.60-117.60 380.80-98L380.80-98L380.80-98Q366-78.40 356.40-51L356.40-51L344.60 0L300 0ZM420.80 0L398.80 0L422.80-132L465.80-132L497-41.20L513.60-132L535.80-131.80L511.40 0L465.60 0L436.80-87.40L420.80 0ZM543.80-48.80L543.80-48.80L543.80-48.80Q543.80-86.60 563.40-110.40L563.40-110.40L563.40-110.40Q584.20-136.20 620.40-136.20L620.40-136.20L620.40-136.20Q646.60-136.20 659.80-123.50L659.80-123.50L659.80-123.50Q673-110.80 673-84L673-84L673-84Q673-43.20 652.20-19.40L652.20-19.40L652.20-19.40Q631.60 4 597 4L597 4L597 4Q570 4 556.90-9.50L556.90-9.50L556.90-9.50Q543.80-23 543.80-48.80ZM596.40-90.20L596.40-90.20L596.40-90.20Q587.40-54.20 587.40-25.80L587.40-25.80L587.40-25.80Q587.40-19 589.70-14.60L589.70-14.60L589.70-14.60Q592-10.20 598.10-10.20L598.10-10.20L598.10-10.20Q604.20-10.20 608-13.10L608-13.10L608-13.10Q611.80-16 614.80-22.60L614.80-22.60L614.80-22.60Q619.60-33.40 624.10-56.30L624.10-56.30L624.10-56.30Q628.60-79.20 629-88.70L629-88.70L629-88.70Q629.40-98.20 629.40-105.40L629.40-105.40L629.40-105.40Q629.40-112.60 627.20-117.20L627.20-117.20L627.20-117.20Q625-121.80 619.10-121.80L619.10-121.80L619.10-121.80Q613.20-121.80 609.20-118.20L609.20-118.20L609.20-118.20Q601.80-111.40 596.40-90.20Z" fill="url(#editing-gradient-gradient)"></path></g></g><style>text {
  font-size: 64px;
  font-family: Arial Black;
  dominant-baseline: central;
  text-anchor: middle;
}</style></svg>